<?xml version="1.0" standalone="no"?>
<!DOCTYPE svg PUBLIC "-//W3C//DTD SVG 20010904//EN"
 "http://www.w3.org/TR/2001/REC-SVG-20010904/DTD/svg10.dtd">
<svg version="1.0" xmlns="http://www.w3.org/2000/svg"
 width="512.000000pt" height="512.000000pt" viewBox="0 0 512.000000 512.000000"
 preserveAspectRatio="xMidYMid meet">
<metadata>
Created by potrace 1.11, written by Peter Selinger 2001-2013
</metadata>
<g transform="translate(0.000000,512.000000) scale(0.100000,-0.100000)"
fill="#000000" stroke="none">
<path d="M4900 4674 c-91 -47 -311 -160 -490 -251 -179 -91 -434 -222 -568
-290 l-243 -124 16 37 c8 20 15 47 15 61 0 15 4 22 11 17 8 -4 8 0 0 15 -7 13
-8 21 -2 21 6 0 9 6 6 13 -2 6 -6 48 -9 91 -3 44 -10 84 -16 90 -7 7 -10 4
-10 -7 0 -32 -50 -116 -98 -165 -46 -47 -114 -102 -127 -102 -3 0 -3 16 1 36
18 96 1 230 -43 330 l-17 39 -7 -45 c-24 -151 -127 -290 -280 -377 -31 -18
-39 -19 -62 -7 -35 19 -193 71 -237 79 -19 4 -70 13 -113 20 -87 16 -350 18
-438 4 -123 -20 -130 -21 -219 -44 -164 -42 -407 -163 -533 -265 -30 -24 -124
-109 -162 -145 -23 -22 -68 -64 -101 -94 -32 -29 -124 -117 -204 -195 -173
-168 -255 -238 -319 -271 -75 -37 -199 -59 -343 -60 -70 0 -124 -3 -120 -7 10
-9 152 -58 184 -64 16 -2 43 -7 60 -10 47 -8 198 -10 200 -3 2 3 18 9 37 12
29 6 32 5 21 -8 -7 -8 -16 -13 -20 -10 -5 3 -10 0 -12 -6 -5 -14 -63 -49 -136
-83 -126 -60 -336 -95 -443 -76 -21 4 -39 6 -39 4 0 -6 80 -41 133 -58 46 -15
144 -31 180 -30 9 1 17 -2 17 -7 0 -4 14 -4 30 1 19 5 30 5 30 -1 0 -6 6 -7
13 -2 6 4 23 9 37 10 28 2 44 5 109 23 23 6 45 9 47 7 7 -7 -121 -151 -187
-209 -119 -105 -281 -217 -372 -256 -15 -6 -27 -19 -27 -28 0 -30 90 -245 159
-379 53 -105 226 -385 250 -405 12 -10 91 -109 91 -113 0 -5 24 -31 131 -143
32 -34 55 -64 51 -68 -4 -4 -2 -6 4 -4 13 4 150 -121 146 -134 -1 -5 2 -7 7
-4 5 3 38 -18 73 -47 35 -28 96 -74 136 -101 40 -27 72 -53 72 -58 0 -4 4 -7
8 -5 5 1 33 -14 64 -34 102 -66 379 -200 506 -245 37 -13 51 -22 47 -32 -4
-12 -2 -12 8 -3 11 8 29 6 78 -10 70 -23 224 -63 279 -73 19 -3 46 -8 60 -11
13 -3 42 -7 65 -10 22 -3 47 -8 55 -10 8 -2 53 -7 100 -10 107 -9 104 -8 112
-20 5 -7 8 -7 8 0 0 6 36 9 95 7 68 -2 95 0 95 8 0 7 -7 39 -15 71 -9 33 -13
64 -10 69 3 6 2 10 -4 10 -5 0 -13 15 -17 32 -10 43 -8 35 -28 103 -25 83
-105 284 -152 381 -38 78 -45 112 -22 98 7 -5 8 -2 4 5 -5 7 -1 20 6 29 8 9
25 43 38 74 12 32 26 58 30 58 4 0 8 6 7 13 -1 34 4 48 15 41 7 -4 8 -3 4 4
-4 6 5 51 18 99 26 90 30 111 42 198 3 28 7 55 8 60 0 6 6 13 11 17 7 5 6 8
-1 8 -6 0 -9 15 -6 38 7 63 4 256 -3 276 -5 11 -3 21 5 26 8 5 8 9 2 11 -11 4
-26 86 -26 151 -1 20 -4 34 -8 32 -6 -4 -10 11 -22 71 -10 47 -61 176 -103
260 l-45 90 33 -30 c19 -16 35 -33 37 -37 2 -5 10 -8 18 -8 8 0 14 -3 14 -8 0
-8 99 -56 169 -82 31 -11 46 -22 45 -33 -1 -9 2 -15 6 -12 4 3 20 -14 35 -37
15 -22 43 -56 61 -75 19 -19 32 -38 29 -43 -3 -6 1 -7 9 -4 9 4 18 -1 22 -10
3 -9 10 -16 16 -16 5 0 16 -6 23 -12 33 -29 45 -38 52 -38 16 0 43 -30 44 -50
5 -82 82 -231 165 -318 l62 -65 104 1 c113 2 150 6 231 27 28 7 56 11 61 8 5
-4 6 -2 3 4 -4 5 6 16 20 24 27 14 77 59 66 59 -3 0 1 8 9 18 8 9 20 31 26 47
10 27 13 41 27 114 9 48 7 137 -3 176 -6 22 -13 51 -16 65 -3 14 -14 58 -25
99 -11 41 -18 78 -15 83 3 4 1 8 -3 8 -5 0 -14 24 -21 53 -18 70 -17 67 -52
190 -17 60 -28 112 -25 117 3 4 1 10 -4 12 -5 1 -12 18 -16 37 -5 26 -4 32 5
26 9 -5 11 -4 6 4 -4 6 -12 9 -17 6 -24 -15 0 68 24 86 5 3 9 10 9 15 0 5 4
19 9 32 12 32 11 76 -3 109 -16 37 -79 131 -110 164 -13 14 -31 41 -38 59 -13
31 -12 34 11 52 26 21 100 84 159 136 21 17 40 32 44 32 4 0 19 11 33 24 15
14 30 23 35 20 5 -3 7 -1 6 3 -5 15 157 150 174 145 5 -1 7 2 4 7 -3 5 4 16
17 24 21 14 54 41 87 70 19 17 131 109 148 122 7 6 21 17 30 26 9 8 49 41 88
72 39 30 78 62 85 69 44 41 138 118 145 118 3 0 14 8 23 18 9 10 39 36 66 57
28 22 52 43 55 46 3 3 69 58 148 123 124 103 151 127 140 126 -2 0 -77 -39
-168 -86z m-600 -428 c-13 -11 -310 -256 -475 -390 -27 -23 -52 -43 -55 -46
-3 -3 -52 -44 -109 -90 -58 -47 -118 -97 -135 -112 -17 -16 -33 -28 -37 -28
-16 0 -31 -63 -25 -101 8 -53 23 -80 83 -154 26 -33 57 -77 67 -97 l20 -36
-32 -70 c-37 -80 -38 -93 -13 -181 113 -390 175 -642 177 -717 7 -226 -63
-288 -338 -295 -64 -2 -68 -1 -101 33 -69 72 -126 183 -142 278 -8 53 -32 81
-100 120 -65 37 -135 106 -187 183 -23 34 -42 63 -43 65 -2 2 -31 13 -66 26
-95 34 -158 69 -217 119 -60 53 -81 61 -127 53 -69 -13 -95 -88 -55 -156 75
-128 139 -293 160 -412 22 -119 25 -153 25 -323 0 -170 -7 -260 -26 -345 -6
-25 -13 -55 -15 -67 -9 -45 -57 -168 -104 -264 -57 -117 -58 -107 28 -294 59
-127 144 -364 157 -437 l7 -37 -58 4 c-62 5 -138 12 -216 21 -39 4 -128 22
-307 60 -96 20 -343 112 -485 179 -546 260 -1001 703 -1267 1235 -79 156 -131
280 -117 280 14 0 202 123 263 174 81 66 193 176 252 249 49 59 56 74 57 113
1 39 -3 49 -29 70 -16 12 -27 25 -25 27 3 2 28 20 57 40 35 26 54 47 58 67 8
37 -2 85 -21 101 -13 10 -11 14 9 28 37 24 106 88 273 250 120 116 316 302
388 366 142 127 433 269 628 306 35 6 74 14 88 16 14 3 106 6 205 8 244 4 370
-18 555 -97 25 -11 60 -20 78 -20 37 0 146 61 203 114 69 64 70 64 68 32 -6
-104 92 -146 190 -81 l38 25 1 -28 c2 -62 57 -107 115 -94 26 5 217 101 562
280 129 68 137 71 115 50z"/>
<path d="M4559 4273 c-13 -16 -12 -17 4 -4 16 13 21 21 13 21 -2 0 -10 -8 -17
-17z"/>
<path d="M3840 1920 c-9 -6 -10 -10 -3 -10 6 0 15 5 18 10 8 12 4 12 -15 0z"/>
<path d="M2236 347 c3 -10 9 -15 12 -12 3 3 0 11 -7 18 -10 9 -11 8 -5 -6z"/>
</g>
</svg>
